<?xml version="1.0" standalone="no"?>
<!DOCTYPE svg PUBLIC "-//W3C//DTD SVG 20010904//EN"
 "http://www.w3.org/TR/2001/REC-SVG-20010904/DTD/svg10.dtd">
<svg version="1.0" xmlns="http://www.w3.org/2000/svg"
 width="824.000000pt" height="1280.000000pt" viewBox="0 0 824.000000 1280.000000"
 preserveAspectRatio="xMidYMid meet">
<metadata>
Created by potrace 1.15, written by Peter Selinger 2001-2017
</metadata>
<g transform="translate(0.000000,1280.000000) scale(0.100000,-0.100000)"
fill="#000000" stroke="none">
<path d="M3939 12537 c-636 -851 -1205 -1731 -1834 -2837 -319 -562 -488 -874
-701 -1300 -747 -1494 -1248 -2881 -1381 -3820 -24 -173 -24 -550 1 -750 63
-523 212 -1008 457 -1490 228 -450 505 -828 870 -1185 797 -780 1820 -1182
2934 -1152 597 16 1109 139 1620 390 391 192 702 415 1026 737 345 343 608
708 833 1157 352 703 529 1559 461 2221 -119 1148 -832 3048 -1780 4746 -482
863 -1041 1772 -1508 2451 -256 372 -767 1072 -796 1089 -3 2 -95 -113 -202
-257z"/>
</g>
</svg>
